<svg width="35" height="35" viewBox="0 0 35 35" fill="none" xmlns="http://www.w3.org/2000/svg">
<path d="M28.9673 16.5333V0.0114746H0V18.584H5.896L5.89456 34.9903H34.9986L35 16.5333H28.9673ZM5.896 16.5333H2.05078V2.06226H26.9165V20.9792L22.4706 16.5333H13.2421L5.896 9.18715V16.5333ZM32.9362 32.9366H7.94678V14.1381L12.3927 18.584H21.6212L28.9673 25.9301V18.584H32.9362V32.9366Z" fill="white"/>
<path d="M15.3809 24.7355H17.4316V26.7863H15.3809V24.7355Z" fill="white"/>
<path d="M19.4824 24.7355H21.5332V26.7863H19.4824V24.7355Z" fill="white"/>
<path d="M23.584 24.7355H25.6348V26.7863H23.584V24.7355Z" fill="white"/>
<path d="M20.7031 6.25117L19.2871 4.7677L14.3722 9.4592L12.517 7.6042L11.067 9.05431L14.3388 12.3262L20.7031 6.25117Z" fill="white"/>
</svg>
