<svg width="34" height="34" viewBox="0 0 34 34" fill="none" xmlns="http://www.w3.org/2000/svg">
<g clip-path="url(#clip0)">
<path d="M33.5741 16.6018C34.1904 15.924 34.1309 14.8851 33.4412 14.2819L18.2461 0.986181C17.5564 0.383038 16.4507 0.395672 15.7755 1.01466L0.528797 14.9908C-0.146386 15.6098 -0.179524 16.6474 0.455427 17.3074L0.837683 17.7055C1.47186 18.3655 2.49694 18.4442 3.12579 17.8807L4.26525 16.8603V31.7995C4.26525 32.716 5.00793 33.458 5.92383 33.458H11.867C12.7829 33.458 13.5256 32.716 13.5256 31.7995V21.3481H21.1063V31.7995C21.0931 32.7154 21.7484 33.4574 22.6643 33.4574H28.9626C29.8785 33.4574 30.6212 32.7154 30.6212 31.7988V17.0707C30.6212 17.0707 30.936 17.3464 31.3242 17.6877C31.7118 18.0282 32.5258 17.7552 33.1422 17.0766L33.5741 16.6018Z" fill="white"/>
</g>
<defs>
<clipPath id="clip0">
<rect width="34" height="34" fill="white"/>
</clipPath>
</defs>
</svg>
