<svg width="23" height="23" viewBox="0 0 23 23" fill="none" xmlns="http://www.w3.org/2000/svg">
<path d="M19.6318 3.36824C17.4597 1.19622 14.5718 0 11.5 0C8.42824 0 5.54035 1.19622 3.36824 3.36824C1.19622 5.54035 0 8.42824 0 11.5C0 14.5718 1.19622 17.4597 3.36824 19.6318C5.54035 21.8038 8.42824 23 11.5 23C14.5718 23 17.4597 21.8038 19.6318 19.6318C21.8038 17.4597 23 14.5718 23 11.5C23 8.42824 21.8038 5.54035 19.6318 3.36824ZM11.5 3.14453C12.8623 3.14453 13.9707 4.25289 13.9707 5.61523C13.9707 6.97758 12.8623 8.08594 11.5 8.08594C10.1377 8.08594 9.0293 6.97758 9.0293 5.61523C9.0293 4.25289 10.1377 3.14453 11.5 3.14453ZM14.6445 18.8672H8.35547V17.5195H9.70312V10.7812H8.35547V9.43359H13.2969V17.5195H14.6445V18.8672Z" fill="black"/>
</svg>
