<svg width="35" height="35" viewBox="0 0 35 35" fill="none" xmlns="http://www.w3.org/2000/svg">
<g clip-path="url(#clip0)">
<path d="M33.0794 13.6996L30.3377 13.351C30.1117 12.6554 29.8331 11.9846 29.5079 11.3473L31.201 9.16708C31.8865 8.28479 31.8062 7.03938 31.0231 6.28104L28.7262 3.98417C27.9606 3.19375 26.7152 3.115 25.8315 3.79896L23.6542 5.49208C23.0169 5.16688 22.346 4.88833 21.649 4.66229L21.3004 1.925C21.1692 0.826875 20.2373 0 19.1333 0H15.8667C14.7627 0 13.8308 0.826875 13.6996 1.92063L13.351 4.66229C12.654 4.88833 11.9831 5.16542 11.3458 5.49208L9.16708 3.79896C8.28625 3.115 7.04083 3.19375 6.28104 3.97688L3.98417 6.27229C3.19375 7.03938 3.11354 8.28479 3.79896 9.16854L5.49208 11.3473C5.16542 11.9846 4.88833 12.6554 4.66229 13.351L1.925 13.6996C0.826875 13.8308 0 14.7627 0 15.8667V19.1333C0 20.2373 0.826875 21.1692 1.92062 21.3004L4.66229 21.649C4.88833 22.3446 5.16687 23.0154 5.49208 23.6527L3.79896 25.8329C3.11354 26.7152 3.19375 27.9606 3.97687 28.719L6.27375 31.0158C7.04083 31.8048 8.28479 31.8835 9.16854 31.1996L11.3473 29.5065C11.9846 29.8331 12.6554 30.1117 13.351 30.3363L13.6996 33.0721C13.8308 34.1731 14.7627 35 15.8667 35H19.1333C20.2373 35 21.1692 34.1731 21.3004 33.0794L21.649 30.3377C22.3446 30.1117 23.0154 29.8331 23.6527 29.5079L25.8329 31.201C26.7152 31.8865 27.9606 31.8063 28.719 31.0231L31.0158 28.7263C31.8062 27.9592 31.8865 26.7152 31.201 25.8315L29.5079 23.6527C29.8346 23.0154 30.1131 22.3446 30.3377 21.649L33.0735 21.3004C34.1717 21.1692 34.9985 20.2373 34.9985 19.1333V15.8667C35 14.7627 34.1731 13.8308 33.0794 13.6996ZM17.5 24.7917C13.4794 24.7917 10.2083 21.5206 10.2083 17.5C10.2083 13.4794 13.4794 10.2083 17.5 10.2083C21.5206 10.2083 24.7917 13.4794 24.7917 17.5C24.7917 21.5206 21.5206 24.7917 17.5 24.7917Z" fill="white"/>
</g>
<defs>
<clipPath id="clip0">
<rect width="35" height="35" fill="white"/>
</clipPath>
</defs>
</svg>
